
		<svg xmlns="http://www.w3.org/2000/svg" xmlns:xlink="http://www.w3.org/1999/xlink" version="1.1" width="3000" height="3187.5">
			
			<g transform="scale(9.375) translate(10, 10)">
				<defs id="SvgjsDefs5897"><linearGradient id="SvgjsLinearGradient5901"><stop id="SvgjsStop5902" stop-color="#2d388a" offset="0"></stop><stop id="SvgjsStop5903" stop-color="#00aeef" offset="1"></stop></linearGradient><linearGradient id="SvgjsLinearGradient5904"><stop id="SvgjsStop5905" stop-color="#2d388a" offset="0"></stop><stop id="SvgjsStop5906" stop-color="#00aeef" offset="1"></stop></linearGradient></defs><g id="SvgjsG5898" featureKey="root" fill="#ffffff"></g><g id="SvgjsG5899" featureKey="container1" fill="url(#SvgjsLinearGradient5904)" transform="matrix(1.496781973570616,0,0,1.496781973570616,0,5)"><defs xmlns="http://www.w3.org/2000/svg"></defs><path xmlns="http://www.w3.org/2000/svg" d="M100.215,200.43c55.259,0,100.215-44.956,100.215-100.215S155.474,0,100.215,0S0,44.956,0,100.215  S44.956,200.43,100.215,200.43z M100.215,10c49.745,0,90.215,40.47,90.215,90.215s-40.47,90.215-90.215,90.215  C50.47,190.43,10,149.959,10,100.215S50.47,10,100.215,10z"></path></g><g id="SvgjsG5900" featureKey="text1" fill="url(#SvgjsLinearGradient5901)" transform="matrix(6.637873670028311,0,0,6.637873670028311,39.246640666421264,72.81063798022808)"><path d="M10.56 5.52 c0.84 0.32 1.58 0.84 2.2 1.48 c1.4 1.42 2.1 3.24 2.1 5.42 s-0.7 4 -2.1 5.42 c-0.62 0.64 -1.36 1.16 -2.2 1.48 c-0.82 0.34 -1.7 0.52 -2.58 0.52 l-5.66 0 c-0.38 0 -0.7 -0.32 -0.7 -0.7 l0 -1.44 c0 -0.4 0.32 -0.72 0.7 -0.72 l5.6 0 c1.2 0 2.14 -0.42 2.9 -1.3 c0.74 -0.88 1.1 -1.94 1.1 -3.26 s-0.36 -2.38 -1.1 -3.26 c-0.76 -0.88 -1.7 -1.3 -2.9 -1.3 l-5.6 0 c-0.38 0 -0.7 -0.32 -0.7 -0.72 l0 -1.44 c0 -0.38 0.32 -0.7 0.7 -0.7 l5.66 0 c0.88 0 1.76 0.18 2.58 0.52 z M31.02 5 c0.38 0 0.7 0.32 0.7 0.7 l0 13.4 c0 0.38 -0.32 0.7 -0.7 0.7 l-1.52 0 c-0.4 0 -0.7 -0.32 -0.7 -0.7 l0 -9.04 l-3.7 4.76 c-0.14 0.16 -0.34 0.26 -0.56 0.26 l0 0 c-0.22 0 -0.44 -0.1 -0.56 -0.28 l-6.56 -8.68 c-0.16 -0.2 -0.18 -0.5 -0.06 -0.72 c0.12 -0.24 0.36 -0.4 0.62 -0.4 l1.76 0 c0.22 0 0.42 0.1 0.56 0.28 l4.24 5.6 l4.14 -5.6 c0.14 -0.18 0.34 -0.28 0.58 -0.28 l1.76 0 z M19.5 14.7 c0.38 0 0.7 0.3 0.7 0.7 l0 3.7 c0 0.38 -0.32 0.7 -0.7 0.7 l-1.52 0 c-0.38 0 -0.7 -0.32 -0.7 -0.7 l0 -3.7 c0 -0.4 0.32 -0.7 0.7 -0.7 l1.52 0 z"></path></g>
			</g>
		</svg>
	